REM DIRINDEX 1\2\3,1\2\4,1\2\5,1\2\6
REM DIRNAME folder01,folder02,folder03,folder04,folder05,folder06
TITLE ""
FILE "076 076.mp3" MP3
  TRACK 01 AUDIO
    TITLE "0:"
    INDEX 01 00:00:00
  TRACK 02 AUDIO
    TITLE "3:cjc157_2847"
    INDEX 01 00:00:11
  TRACK 03 AUDIO
    TITLE "0:"
    INDEX 01 00:01:34
  TRACK 04 AUDIO
    TITLE "4:cjc157_2848"
    INDEX 01 00:02:02
  TRACK 05 AUDIO
    TITLE "0:"
    INDEX 01 00:03:19
  TRACK 06 AUDIO
    TITLE "5:cjc157_2849"
    INDEX 01 00:03:63
  TRACK 07 AUDIO
    TITLE "0:"
    INDEX 01 00:05:42
  TRACK 08 AUDIO
    TITLE "5:cjc157_2850"
    INDEX 01 00:06:08
  TRACK 09 AUDIO
    TITLE "0:"
    INDEX 01 00:08:11
  TRACK 10 AUDIO
    TITLE "5:cjc157_2851"
    INDEX 01 00:08:56
  TRACK 11 AUDIO
    TITLE "0:"
    INDEX 01 00:10:41
  TRACK 12 AUDIO
    TITLE "3:cjc157_2852"
    INDEX 01 00:11:09
  TRACK 13 AUDIO
    TITLE "0:"
    INDEX 01 00:12:34
  TRACK 14 AUDIO
    TITLE "4:cjc157_2853"
    INDEX 01 00:13:00
  TRACK 15 AUDIO
    TITLE "0:"
    INDEX 01 00:14:06
  TRACK 16 AUDIO
    TITLE "5:cjc157_2854"
    INDEX 01 00:14:53
  TRACK 17 AUDIO
    TITLE "0:"
    INDEX 01 00:16:36
  TRACK 18 AUDIO
    TITLE "3:cjc157_2855"
    INDEX 01 00:17:02
  TRACK 19 AUDIO
    TITLE "0:"
    INDEX 01 00:18:31
  TRACK 20 AUDIO
    TITLE "4:cjc157_2856"
    INDEX 01 00:19:03
  TRACK 21 AUDIO
    TITLE "0:"
    INDEX 01 00:20:00
  TRACK 22 AUDIO
    TITLE "5:cjc157_2857"
    INDEX 01 00:20:51
  TRACK 23 AUDIO
    TITLE "0:"
    INDEX 01 00:22:40
  TRACK 24 AUDIO
    TITLE "5:cjc157_2858"
    INDEX 01 00:23:08
  TRACK 25 AUDIO
    TITLE "0:"
    INDEX 01 00:25:29
  TRACK 26 AUDIO
    TITLE "3:cjc157_2859"
    INDEX 01 00:26:03
  TRACK 27 AUDIO
    TITLE "0:"
    INDEX 01 00:27:02
  TRACK 28 AUDIO
    TITLE "4:cjc157_2860"
    INDEX 01 00:27:53
  TRACK 29 AUDIO
    TITLE "0:"
    INDEX 01 00:28:33
  TRACK 30 AUDIO
    TITLE "5:cjc157_2861"
    INDEX 01 00:29:21
  TRACK 31 AUDIO
    TITLE "0:"
    INDEX 01 00:31:71
  TRACK 32 AUDIO
    TITLE "5:cjc157_2862"
    INDEX 01 00:32:43
  TRACK 33 AUDIO
    TITLE "0:"
    INDEX 01 00:34:43
  TRACK 34 AUDIO
    TITLE "5:cjc157_2863"
    INDEX 01 00:35:21
  TRACK 35 AUDIO
    TITLE "0:"
    INDEX 01 00:37:01
  TRACK 36 AUDIO
    TITLE "3:cjc157_2864"
    INDEX 01 00:37:52
  TRACK 37 AUDIO
    TITLE "0:"
    INDEX 01 00:38:61
  TRACK 38 AUDIO
    TITLE "4:cjc157_2865"
    INDEX 01 00:39:33
  TRACK 39 AUDIO
    TITLE "0:"
    INDEX 01 00:40:44
  TRACK 40 AUDIO
    TITLE "5:cjc157_2866"
    INDEX 01 00:41:14
  TRACK 41 AUDIO
    TITLE "0:"
    INDEX 01 00:43:15
  TRACK 42 AUDIO
    TITLE "3:cjc157_2867"
    INDEX 01 00:43:66
  TRACK 43 AUDIO
    TITLE "0:"
    INDEX 01 00:45:00
  TRACK 44 AUDIO
    TITLE "4:cjc157_2868"
    INDEX 01 00:45:49
  TRACK 45 AUDIO
    TITLE "0:"
    INDEX 01 00:46:66
  TRACK 46 AUDIO
    TITLE "5:cjc157_2869"
    INDEX 01 00:47:34
  TRACK 47 AUDIO
    TITLE "0:"
    INDEX 01 00:48:71
  TRACK 48 AUDIO
    TITLE "3:cjc157_2870"
    INDEX 01 00:49:43
  TRACK 49 AUDIO
    TITLE "0:"
    INDEX 01 00:50:39
  TRACK 50 AUDIO
    TITLE "4:cjc157_2871"
    INDEX 01 00:51:11
  TRACK 51 AUDIO
    TITLE "0:"
    INDEX 01 00:52:26
  TRACK 52 AUDIO
    TITLE "5:cjc157_2872"
    INDEX 01 00:52:71
  TRACK 53 AUDIO
    TITLE "0:"
    INDEX 01 00:55:22
  TRACK 54 AUDIO
    TITLE "3:cjc157_2873"
    INDEX 01 00:55:69
  TRACK 55 AUDIO
    TITLE "0:"
    INDEX 01 00:57:13
  TRACK 56 AUDIO
    TITLE "4:cjc157_2874"
    INDEX 01 00:57:58
  TRACK 57 AUDIO
    TITLE "0:"
    INDEX 01 00:58:67
  TRACK 58 AUDIO
    TITLE "5:cjc157_2875"
    INDEX 01 00:59:39
  TRACK 59 AUDIO
    TITLE "0:"
    INDEX 01 01:01:23
  TRACK 60 AUDIO
    TITLE "5:cjc157_2876"
    INDEX 01 01:01:68
  TRACK 61 AUDIO
    TITLE "0:"
    INDEX 01 01:03:65
  TRACK 62 AUDIO
    TITLE "3:cjc157_2877"
    INDEX 01 01:04:35
  TRACK 63 AUDIO
    TITLE "0:"
    INDEX 01 01:05:34
  TRACK 64 AUDIO
    TITLE "4:cjc157_2878"
    INDEX 01 01:06:06
  TRACK 65 AUDIO
    TITLE "0:"
    INDEX 01 01:07:21
  TRACK 66 AUDIO
    TITLE "5:cjc157_2879"
    INDEX 01 01:07:64
  TRACK 67 AUDIO
    TITLE "0:"
    INDEX 01 01:09:52
  TRACK 68 AUDIO
    TITLE "3:cjc157_2880"
    INDEX 01 01:10:24
  TRACK 69 AUDIO
    TITLE "0:"
    INDEX 01 01:11:35
  TRACK 70 AUDIO
    TITLE "4:cjc157_2881"
    INDEX 01 01:12:11
  TRACK 71 AUDIO
    TITLE "0:"
    INDEX 01 01:13:24
  TRACK 72 AUDIO
    TITLE "5:cjc157_2882"
    INDEX 01 01:13:71
  TRACK 73 AUDIO
    TITLE "0:"
    INDEX 01 01:19:42
